<svg width="24" height="25" viewBox="0 0 24 25" fill="none" xmlns="http://www.w3.org/2000/svg">
<path d="M16.5386 6.89221L12.0483 10.3965L7.45532 6.89221V6.89316L7.46087 6.8979V11.8049L11.9966 15.3849L16.5386 11.9431V6.89221Z" fill="#EA4335"/>
<path d="M17.7173 6.03979L16.5381 6.89219V11.9431L20.2487 9.09425V7.37805C20.2487 7.37805 19.7983 4.92693 17.7173 6.03979Z" fill="#FBBC05"/>
<path d="M16.5381 11.9431V18.4943H19.3821C19.3821 18.4943 20.1914 18.411 20.2496 17.4885V9.09424L16.5381 11.9431Z" fill="#34A853"/>
<path d="M7.4627 18.5001V11.8049L7.45532 11.8002L7.4627 18.5001Z" fill="#C5221F"/>
<path d="M7.4551 6.89303L6.28235 6.04537C4.20134 4.93251 3.75 7.38269 3.75 7.38269V9.09883L7.4551 11.8V6.89303Z" fill="#C5221F"/>
<path d="M7.45532 6.89331V11.8003L7.4627 11.8051V6.89805L7.45532 6.89331Z" fill="#C5221F"/>
<path d="M3.75 9.1001V17.4943C3.80734 18.4178 4.61755 18.5002 4.61755 18.5002H7.46158L7.4551 11.8003L3.75 9.1001Z" fill="#4285F4"/>
</svg>
