<svg width="20" height="21" viewBox="0 0 20 21" fill="none" xmlns="http://www.w3.org/2000/svg">
<path fill-rule="evenodd" clip-rule="evenodd" d="M10 1.75C5.16625 1.75 1.25 5.6625 1.25 10.4913C1.25 14.3538 3.7575 17.6288 7.23375 18.785C7.67125 18.865 7.83125 18.595 7.83125 18.3638C7.83125 18.1563 7.82375 17.6063 7.81875 16.8763C5.385 17.405 4.8725 15.705 4.8725 15.705C4.47375 14.695 3.9 14.4263 3.9 14.4263C3.10625 13.8838 3.96 13.895 3.96 13.895C4.83875 13.9575 5.30125 14.795 5.30125 14.795C6.08125 16.1325 7.34875 15.745 7.8475 15.5225C7.92625 14.9575 8.1525 14.5725 8.4025 14.3538C6.46 14.1338 4.4175 13.3838 4.4175 10.0338C4.4175 9.08 4.75875 8.29875 5.3175 7.68875C5.2275 7.4675 4.9275 6.57875 5.405 5.37625C5.405 5.37625 6.1375 5.14 7.81 6.27125C8.5238 6.07678 9.26019 5.97758 10 5.97625C10.7437 5.98 11.4925 6.07625 12.1912 6.27125C13.8612 5.14 14.595 5.375 14.595 5.375C15.0725 6.57875 14.7725 7.4675 14.6825 7.6875C15.2425 8.3 15.5825 9.08 15.5825 10.0338C15.5825 13.3913 13.535 14.1313 11.5863 14.3463C11.9 14.6163 12.18 15.15 12.18 15.9663C12.18 17.1338 12.1687 18.0763 12.1687 18.3638C12.1687 18.5975 12.3275 18.8688 12.7712 18.7838C14.5117 18.2034 16.0256 17.0903 17.0986 15.6021C18.1715 14.1139 18.7493 12.3259 18.75 10.4913C18.7487 8.17182 17.8261 5.94789 16.1852 4.30862C14.5443 2.66936 12.3194 1.74901 10 1.75Z" fill="white"/>
</svg>
